<?xml version="1.0" standalone="no"?><svg xmlns="http://www.w3.org/2000/svg" viewBox="0 0 1440 320"><path fill="#000b76" fill-opacity="0.9" d="M0,160L26.7,160C53.3,160,107,160,160,138.7C213.3,117,267,75,320,85.3C373.3,96,427,160,480,170.7C533.3,181,587,139,640,138.7C693.3,139,747,181,800,176C853.3,171,907,117,960,112C1013.3,107,1067,149,1120,176C1173.3,203,1227,213,1280,208C1333.3,203,1387,181,1413,170.7L1440,160L1440,320L1413.3,320C1386.7,320,1333,320,1280,320C1226.7,320,1173,320,1120,320C1066.7,320,1013,320,960,320C906.7,320,853,320,800,320C746.7,320,693,320,640,320C586.7,320,533,320,480,320C426.7,320,373,320,320,320C266.7,320,213,320,160,320C106.7,320,53,320,27,320L0,320Z"></path></svg>